<?xml version="1.0" encoding="UTF-8"?>
<svg xmlns="http://www.w3.org/2000/svg" id="Layer_1" data-name="Layer 1" viewBox="0 0 24 24">
  <path fill="#FFFFFF" d="M22.765,8.255c-.34-2.727-.932-4.519-.967-4.622-.108-.321-.372-.566-.7-.65-.172-.044-4.262-1.077-9.098-1.077S3.075,2.938,2.903,2.982c-.33,.084-.595,.33-.702,.653-.035,.105-.624,1.907-.964,4.619H22.765ZM13.979,4.087c.828,0,1.5,.671,1.5,1.5s-.672,1.5-1.5,1.5-1.5-.672-1.5-1.5,.672-1.5,1.5-1.5Zm-4.335,0c.828,0,1.5,.671,1.5,1.5s-.672,1.5-1.5,1.5-1.5-.672-1.5-1.5,.672-1.5,1.5-1.5Zm-4.335,0c.828,0,1.5,.671,1.5,1.5s-.672,1.5-1.5,1.5-1.5-.672-1.5-1.5,.672-1.5,1.5-1.5Z"/>
  <path fill="#FFFFFF" d="M1.052,10.255c-.033,.559-.052,1.143-.052,1.745,0,4.734,1.153,8.222,1.202,8.367,.108,.321,.372,.566,.7,.65,.172,.044,4.262,1.077,9.098,1.077s8.925-1.033,9.097-1.077c.33-.084,.595-.33,.702-.653,.049-.147,1.201-3.671,1.201-8.364,0-.603-.019-1.187-.052-1.745H1.052Zm11.926,8.437H7.048c-.553,0-1-.447-1-1s.447-1,1-1h5.931c.553,0,1,.447,1,1s-.447,1-1,1Zm3.974-3.542H7.048c-.553,0-1-.447-1-1s.447-1,1-1h9.904c.553,0,1,.447,1,1s-.447,1-1,1Z"/>
</svg>